<?xml version="1.0" encoding="UTF-8"?>
<svg width="258px" height="100px" viewBox="0 0 258 100" version="1.1" xmlns="http://www.w3.org/2000/svg" xmlns:xlink="http://www.w3.org/1999/xlink">
    <!-- Generator: Sketch 55.2 (78181) - https://sketchapp.com -->
    <title>new_publimetro_bggreen</title>
    <desc>Created with Sketch.</desc>
    <g id="new_publimetro_bggreen" stroke="none" stroke-width="1" fill="none" fill-rule="evenodd">
        <rect fill="#32692D" x="0" y="0" width="258" height="100"></rect>
        <g id="publimetro_new_bggreen" transform="translate(9.000000, 10.000000)" fill-rule="nonzero">
            <rect id="Rectangle" fill="#32692D" x="0" y="0" width="243.548854" height="79.9873016"></rect>
            <path d="M30.080625,40.8190476 C30.080625,46.6920635 26.8145833,50.7936508 22.684375,50.7936508 C20.5602261,50.8445718 18.5029354,50.049707 16.965625,48.584127 L16.965625,33.0539683 C18.5125235,31.5976097 20.5590123,30.7887416 22.684375,30.7936286 C26.8145833,30.7936286 30.080625,34.9460317 30.080625,40.8190476 M35.2529167,40.8190476 C35.2529167,31.4666667 28.89875,26.3301587 23.4913542,26.3301587 C20.3142708,26.3301587 17.7726042,27.3015873 16.3365625,28.9587302 L16.1586458,26.9396825 L11.9013542,26.9396825 L11.9013542,64.8507937 L16.9846875,64.8507937 L16.9846875,53.7777778 C18.7077295,54.8117366 20.6950346,55.3214134 22.7034375,55.2444444 C29.9789583,55.2444444 35.2719792,49.2507937 35.2719792,40.8190476" id="Fill-1" fill="#FFFFFF"></path>
            <path d="M55.5290625,54.6349206 L55.3384375,52.0952381 C53.6164583,54.1714286 51.7673958,55.2698413 48.0692708,55.2698413 C42.77625,55.2380952 39.0145833,51.6380952 39.0145833,46.0190476 L39.0145833,26.9396825 L44.0661458,26.9396825 L44.0661458,45.4666667 C44.0661458,48.2730159 45.6102083,50.8507937 49.3655208,50.8507937 C53.0001042,50.8507937 54.9698958,48.2730159 54.9698958,45.4666667 L54.9698958,26.9396825 L60.0532292,26.9396825 L60.0532292,54.6349206 L55.5290625,54.6349206 Z" id="Fill-3" fill="#FFFFFF"></path>
            <path d="M80.8313542,40.6349206 C80.8313542,46.6222222 77.5017708,50.7936508 72.3294792,50.7936508 C71.1557923,50.8301627 69.9909587,50.5795048 68.9363542,50.0634921 L68.9363542,32.0126984 C69.8577083,31.2253968 71.0904167,30.7936508 73.0030208,30.7936508 C76.9489583,30.7936508 80.8313542,34.7047619 80.8313542,40.6349206 M85.9146875,40.6349206 C85.9146875,32.0126984 79.8655208,26.3301587 73.0347917,26.3301587 C70.8171875,26.3301587 69.8577083,26.6349206 68.9045833,27.1873016 L68.9045833,15.1238095 L63.859375,15.1238095 L63.859375,52.552381 C66.3078841,54.3588064 69.2865837,55.3032972 72.3294792,55.2380952 C80.2721875,55.2380952 85.9464583,49.4285714 85.9464583,40.6349206" id="Fill-5" fill="#FFFFFF"></path>
            <polygon id="Fill-7" fill="#FFFFFF" points="88.67875 54.7555556 88.67875 15.1428571 93.7938542 15.1428571 93.7938542 54.7428571"></polygon>
            <path d="M103.515736,18.7428571 C103.515736,19.9349929 102.796699,21.0096225 101.694202,21.4652377 C100.591705,21.9208529 99.3230769,21.6676371 98.4803616,20.8237609 C97.6376463,19.9798847 97.3869702,18.711704 97.845319,17.6110532 C98.3036677,16.5104025 99.3806856,15.7942561 100.57375,15.7968185 C101.355114,15.7968185 102.104382,16.1074107 102.656293,16.660082 C103.208204,17.2127534 103.517417,17.9621054 103.515736,18.7428571 L103.515736,18.7428571 Z" id="Path" fill="#FFFFFF"></path>
            <rect id="Rectangle" fill="#FFFFFF" x="97.9558333" y="26.9396825" width="5.17229167" height="27.6888889"></rect>
            <path d="M137.618542,54.6031746 L137.618542,35.1555556 C137.618542,32.4634921 135.839375,30.7555556 132.573333,30.7555556 C129.307292,30.7555556 127.49,32.7111111 127.49,35.2 L127.49,54.6031746 L122.406667,54.6031746 L122.406667,35.1555556 C122.406667,32.4634921 120.678333,30.7555556 117.323333,30.7555556 C114.14625,30.7555556 112.208229,32.7111111 112.208229,35.2 L112.208229,54.6031746 L107.156667,54.6031746 L107.156667,26.9015873 L111.655417,26.9015873 L111.846042,29.4730159 C113.561667,27.4539683 115.347187,26.2983284 119.045313,26.2983284 C121.766799,26.2858814 124.303663,27.672033 125.761667,29.968254 C127.369271,27.8984127 129.949062,26.2983284 134.206354,26.2983284 C139.188021,26.2983284 142.708229,29.8412698 142.708229,34.7365079 L142.708229,54.6031746 L137.618542,54.6031746 Z" id="Fill-11" fill="#FFFFFF"></path>
            <path d="M203.600208,30.9777778 C199.597083,30.9777778 195.155521,33.6698413 195.155521,40.5015873 L195.155521,54.6349206 L190.072187,54.6349206 L190.072187,26.9396825 L194.875937,26.9396825 L195.060208,31.0984127 C196.362813,27.9238095 199.558958,26.5714286 203.320625,26.5714286 L204.127604,26.5714286 L204.127604,30.9714286 L203.600208,30.9777778 Z" id="Fill-17" fill="#FFFFFF"></path>
            <path d="M217.528542,26.4634921 C209.649375,26.4634921 203.409583,32.8825397 203.409583,40.9777778 C203.409583,49.0730159 209.649375,55.4920635 217.528542,55.4920635 C225.407708,55.4920635 231.6475,49.0730159 231.6475,40.9777778 C231.6475,32.8825397 225.401354,26.4634921 217.528542,26.4634921 Z M215.914583,28.8190476 C216.122821,28.7669075 216.335617,28.735013 216.55,28.7238095 L216.55,34.0888889 C215.469985,33.9478946 214.406054,33.7033815 213.372917,33.3587302 C214.045584,31.7543202 214.89826,30.2313523 215.914583,28.8190476 L215.914583,28.8190476 Z M216.55,36.0952381 L216.55,40 L211.657292,40 C211.801947,38.3322606 212.16512,36.6907181 212.7375,35.1174603 C213.964075,35.6097913 215.250205,35.9385446 216.562708,36.0952381 L216.55,36.0952381 Z M213.214062,29.5111111 C212.594329,30.4974104 212.062761,31.5363473 211.625521,32.615873 C210.980618,32.3149016 210.356524,31.9712817 209.757396,31.5873016 C210.775584,30.6870494 211.951897,29.983104 213.226771,29.5111111 L213.214062,29.5111111 Z M208.416667,32.9777778 C209.242027,33.5137946 210.104083,33.9911621 210.996458,34.4063492 C210.33317,36.2039474 209.905996,38.0799104 209.725625,39.9873016 L205.633542,39.9873016 C205.781539,37.4122678 206.757669,34.9538067 208.416667,32.9777778 L208.416667,32.9777778 Z M205.652604,41.9555556 L209.738333,41.9555556 C209.892939,43.8690438 210.320891,45.7505629 211.009167,47.5428571 C210.111281,47.9576355 209.244822,48.4372112 208.416667,48.9777778 C206.767517,46.9926022 205.798752,44.5314141 205.652604,41.9555556 Z M209.757396,50.3555556 C210.363857,49.9524754 211.001259,49.5979318 211.663646,49.2952381 C212.082318,50.4018878 212.607964,51.4651175 213.233125,52.4698413 C211.950009,51.993428 210.770154,51.2757223 209.757396,50.3555556 L209.757396,50.3555556 Z M216.562708,53.2380952 C216.348928,53.2212893 216.136598,53.1894646 215.927292,53.1428571 C214.916216,51.717916 214.075958,50.1793549 213.42375,48.5587302 C214.45693,48.2223826 215.521296,47.9905321 216.600833,47.8666667 L216.562708,53.2380952 Z M216.562708,45.8666667 C215.253507,46.0226492 213.971208,46.3536513 212.750208,46.8507937 C212.184002,45.2732211 211.818941,43.6306603 211.663646,41.9619048 L216.569062,41.9619048 L216.562708,45.8666667 Z M229.385417,40 L225.306042,40 C225.121086,38.093346 224.694044,36.2179631 224.035208,34.4190476 C224.924432,34.001686 225.784227,33.5243949 226.608646,32.9904762 C228.266933,34.9663841 229.241019,37.4253121 229.385417,40 Z M225.286979,31.6 C224.686906,31.9823907 224.062918,32.3259522 223.418854,32.6285714 C222.976671,31.5501589 222.443099,30.511462 221.823958,29.5238095 C223.097367,29.9930308 224.273431,30.6925223 225.293333,31.5873016 L225.286979,31.6 Z M218.488021,28.7365079 C218.702404,28.7477114 218.9152,28.7796059 219.123437,28.831746 C220.144076,30.2413027 220.997038,31.7647825 221.665104,33.3714286 C220.632555,33.7181667 219.568419,33.962727 218.488021,34.1015873 L218.488021,28.7365079 Z M218.488021,36.1079365 C219.797221,35.9483447 221.079323,35.6152584 222.300521,35.1174603 C222.876847,36.6899028 223.242212,38.3316911 223.387083,40 L218.494375,40 L218.488021,36.1079365 Z M218.488021,41.9746032 L223.380729,41.9746032 C223.228761,43.6420983 222.870185,45.284289 222.313229,46.8634921 C221.092278,46.3662035 219.809959,46.0351963 218.500729,45.8793651 L218.488021,41.9746032 Z M219.123438,53.1555556 C218.914053,53.2017414 218.701752,53.2335617 218.488021,53.2507937 L218.488021,47.8666667 C219.557121,47.9908453 220.610917,48.2227122 221.633333,48.5587302 C220.987382,50.1798115 220.151262,51.7186051 219.1425,53.1428571 L219.123438,53.1555556 Z M221.81125,52.4507937 C222.433413,51.4453736 222.956887,50.3822318 223.374375,49.2761905 C224.036061,49.5802651 224.673358,49.93475 225.280625,50.3365079 C224.275664,51.2511446 223.104378,51.9645754 221.830312,52.4380952 L221.81125,52.4507937 Z M226.621354,48.9904762 C225.799305,48.4526272 224.939228,47.9751794 224.047917,47.5619048 C224.738132,45.7701999 225.166149,43.8883977 225.31875,41.9746032 L229.385417,41.9746032 C229.24599,44.5427971 228.283603,46.9980855 226.640417,48.9777778 L226.621354,48.9904762 Z" id="Shape" fill="#FFFFFF"></path>
            <path d="M186.8125,31.0349206 L186.8125,26.9396825 L178.342396,26.9396825 L178.342396,19.047619 L173.46875,19.047619 L173.46875,26.9396825 L168.785729,26.9396825 L168.785729,31.0349206 L173.46875,31.0349206 L173.46875,47.1174603 C173.46875,52.1968254 176.982604,55.0031746 181.411458,55.0031746 C182.099638,55.0259338 182.787306,54.9445912 183.451146,54.7619048 C183.955352,54.6188243 184.400614,54.3185068 184.721979,53.9047619 L184.721979,50.0952381 L184.721979,50.0952381 L184.721979,50.0952381 C183.889038,50.4625959 182.981601,50.6300254 182.072292,50.584127 C180.032604,50.584127 178.50125,49.3142857 178.50125,47.1619048 L178.50125,31.0349206 L186.8125,31.0349206 Z" id="Path" fill="#FFFFFF"></path>
            <path d="M167.67375,36.8253968 C167.514896,31.6698413 163.988333,26.3428571 157.392708,26.3428571 C151.540521,26.3428571 145.567604,31.6571429 145.567604,40.831746 C145.567604,49.447619 151.362604,55.2571429 158.320417,55.2571429 C161.580104,55.2571429 163.804062,54.5206349 165.398958,53.5492063 L165.398958,53.5492063 L165.437083,53.5492063 C165.8873,53.2370041 166.255638,52.8210412 166.510937,52.3365079 L166.510937,48.0952381 C164.451013,49.8976932 161.788424,50.8608254 159.051146,50.7936508 C153.510312,50.7936508 150.924167,45.9619048 150.790729,41.9809524 L167.279792,41.9809524 C167.504699,40.6860865 167.638464,39.3770563 167.680104,38.0634921 L167.680104,38.0634921 C167.711875,37.6190476 167.67375,37.1555556 167.67375,36.8253968 Z M162.590417,37.8285714 L151.044896,37.8285714 C151.680313,33.8666667 154.622292,30.6857143 157.576979,30.6857143 C160.65875,30.6857143 162.660378,33.9873016 162.660378,36.9142857 C162.661967,37.2170812 162.632154,37.5192302 162.571354,37.815873 L162.590417,37.8285714 Z" id="Shape" fill="#FFFFFF"></path>
        </g>
    </g>
</svg>